<?xml version="1.0" standalone="no"?>
<!DOCTYPE svg PUBLIC "-//W3C//DTD SVG 20010904//EN"
 "http://www.w3.org/TR/2001/REC-SVG-20010904/DTD/svg10.dtd">
<svg version="1.0" xmlns="http://www.w3.org/2000/svg"
 width="800.000000pt" height="533.000000pt" viewBox="0 0 800.000000 533.000000"
 preserveAspectRatio="xMidYMid meet">

<g transform="translate(0.000000,533.000000) scale(0.100000,-0.100000)"
fill="#000000" stroke="none">
<path d="M1065 4356 c-102 -32 -107 -51 -34 -130 30 -33 49 -63 47 -73 -4 -20
-47 -35 -148 -53 -83 -14 -194 -65 -226 -103 l-25 -29 3 -1027 c2 -564 -1
-1148 -5 -1298 l-9 -272 40 -20 c56 -28 197 -68 272 -77 98 -11 103 -19 108
-165 2 -68 9 -130 14 -136 15 -18 89 -16 116 2 21 15 22 20 15 133 -7 135 0
152 65 152 90 0 291 66 339 111 18 17 50 24 190 40 92 10 247 28 343 39 719
82 1297 112 2185 114 625 1 833 -6 1205 -39 85 -8 193 -17 240 -20 104 -8 327
-39 478 -67 96 -17 115 -24 122 -42 11 -31 37 -51 109 -85 61 -28 100 -40 211
-59 l45 -8 6 -94 c12 -171 55 -226 128 -164 30 25 30 26 33 137 l3 112 60 6
c99 10 141 27 222 88 126 95 116 66 103 308 -16 299 -30 1113 -29 1718 0 325
-4 533 -10 554 -29 96 -111 145 -273 163 l-108 11 0 40 c0 31 8 48 40 85 49
55 51 93 7 126 -54 40 -212 31 -258 -15 -28 -28 -23 -55 20 -102 31 -34 40
-51 42 -87 l4 -44 -95 -12 c-129 -17 -182 -30 -260 -64 -65 -29 -73 -30 -321
-40 -252 -11 -1357 -33 -1539 -31 -1846 21 -2189 27 -2723 50 l-199 9 -39 32
c-86 68 -207 103 -309 89 -25 -4 -49 -4 -54 -2 -13 8 2 65 30 106 31 47 42
101 23 113 -53 34 -135 42 -204 20z m174 -30 c15 -18 5 -43 -22 -50 -12 -3
-61 -6 -109 -6 -84 0 -112 10 -90 32 34 34 198 52 221 24z m5690 -21 c25 -24
6 -42 -53 -49 -63 -7 -164 2 -172 16 -10 16 17 37 59 47 53 12 148 5 166 -14z
m-5734 -147 c3 -18 5 -67 3 -108 -3 -69 -5 -75 -25 -78 -23 -3 -23 -2 -23 107
0 103 1 111 20 111 14 0 21 -9 25 -32z m5675 -128 c0 -83 -1 -90 -20 -90 -23
0 -24 9 -9 99 18 114 29 110 29 -9z m-5815 51 c-24 -10 -170 -22 -162 -14 11
10 72 21 127 21 37 1 48 -2 35 -7z m300 -2 c11 -17 2 -18 -19 -3 -17 12 -17
14 -4 14 9 0 20 -5 23 -11z m-50 -41 c13 -6 5 -7 -25 -3 -25 3 -49 10 -55 16
-11 11 47 2 80 -13z m-348 5 c-4 -4 -35 -18 -69 -32 -76 -32 -92 -54 -60 -81
33 -27 96 -44 172 -46 64 -2 74 -4 115 -20 40 -16 -53 -16 -141 1 -236 44
-264 100 -81 165 56 20 74 24 64 13z m520 -15 c24 -22 32 -78 12 -78 -6 0 -9
7 -5 15 3 8 -6 28 -19 44 -38 45 -30 58 12 19z m5568 11 c106 -13 142 -32 45
-24 -36 3 -78 8 -94 11 -16 2 -35 -1 -42 -6 -8 -8 -14 -8 -19 0 -5 8 -11 8
-21 -1 -11 -9 -14 -7 -14 10 0 25 13 26 145 10z m-5617 -25 c12 -8 22 -24 22
-35 0 -21 -50 -79 -69 -79 -19 0 -12 17 15 34 36 24 28 55 -21 84 l-40 23 35
-6 c19 -4 45 -13 58 -21z m-171 -10 c-3 -3 -12 -4 -19 -1 -8 3 -5 6 6 6 11 1
17 -2 13 -5z m303 -26 c0 -22 -60 -88 -81 -88 -7 0 4 15 24 34 25 23 37 42 37
60 0 16 4 25 10 21 6 -3 10 -15 10 -27z m5470 22 c0 -5 -5 -10 -11 -10 -5 0
-7 5 -4 10 3 6 8 10 11 10 2 0 4 -4 4 -10z m-445 -10 c-3 -5 -17 -10 -30 -10
-13 0 -35 -4 -50 -10 -17 -6 -24 -6 -20 0 6 10 58 28 88 29 10 1 15 -3 12 -9z
m390 -10 c-3 -5 -24 -10 -46 -10 -24 0 -38 4 -34 10 3 6 24 10 46 10 24 0 38
-4 34 -10z m-6237 -31 c-1 -41 30 -65 102 -79 30 -5 80 -15 110 -20 93 -19
241 -23 333 -11 70 10 92 9 104 -1 22 -18 49 -20 63 -3 7 8 17 15 23 15 7 0 7
-4 -1 -12 -7 -7 -12 -20 -12 -30 0 -13 -16 -22 -60 -35 -33 -10 -60 -21 -60
-26 0 -8 33 -2 84 14 19 6 33 6 40 -1 7 -7 4 -10 -7 -10 -10 0 -17 -8 -17 -19
0 -23 -23 -42 -69 -58 l-36 -13 47 5 c45 4 48 3 55 -23 7 -27 7 -27 13 8 3 24
11 36 25 39 15 3 17 0 8 -10 -6 -8 -14 -42 -18 -77 -7 -65 -14 -73 -74 -93
-23 -8 -22 -8 8 -5 26 2 35 -1 39 -16 2 -10 10 -18 16 -18 9 0 12 -36 10 -136
-3 -128 -2 -136 16 -141 24 -6 24 -7 4 -39 -16 -24 -16 -26 7 -51 17 -18 20
-27 12 -30 -7 -3 -13 -15 -13 -28 0 -22 -2 -22 -34 -13 -44 14 -74 4 -56 -17
11 -13 14 -13 25 1 11 16 12 16 18 0 5 -12 13 -15 26 -11 15 4 21 -1 30 -26
11 -33 7 -53 -12 -46 -12 4 -47 -22 -47 -35 0 -4 7 -5 15 -2 21 8 20 -34 -2
-58 -14 -16 -15 -18 0 -18 12 0 15 -9 14 -37 -3 -36 -6 -39 -47 -51 -72 -22
-78 -25 -46 -30 16 -2 33 1 39 7 6 6 19 11 30 11 15 0 17 -5 11 -22 -4 -13 -6
-39 -5 -59 1 -33 -2 -38 -31 -49 -70 -26 -73 -28 -20 -23 l53 6 -3 -43 c-3
-42 -4 -43 -50 -57 -27 -7 -48 -17 -48 -22 0 -10 72 4 100 19 23 12 30 4 30
-39 l-1 -36 -14 25 -14 25 -1 -32 c0 -27 -4 -32 -30 -38 -16 -4 -33 -11 -36
-17 -4 -6 1 -8 15 -4 65 19 61 20 55 -16 -9 -43 -16 -51 -67 -65 l-42 -11 50
-1 c28 0 62 6 78 13 15 8 27 11 27 6 0 -5 -9 -12 -20 -15 -26 -8 -40 -36 -33
-65 6 -22 6 -22 19 6 12 28 12 26 13 -31 0 -58 0 -59 -14 -34 -19 34 -44 44
-64 24 -14 -13 -12 -15 17 -15 29 0 32 -3 32 -30 0 -24 4 -30 21 -30 37 0 9
-19 -39 -26 -73 -11 -97 -25 -31 -19 56 6 56 6 52 -19 -3 -13 0 -32 6 -43 9
-16 10 -16 11 7 l1 25 11 -22 c6 -13 16 -23 21 -23 6 0 2 -6 -8 -14 -12 -8
-16 -19 -12 -31 5 -13 3 -16 -8 -11 -10 4 -15 -1 -15 -14 0 -11 5 -17 13 -15
9 4 13 -21 14 -102 3 -100 2 -106 -11 -78 -12 26 -14 27 -15 8 -2 -39 -12 -53
-41 -53 -16 0 -32 -4 -35 -10 -4 -6 10 -10 34 -10 32 0 41 -4 46 -21 5 -15 9
-18 15 -9 5 7 10 8 14 2 9 -15 -15 -30 -69 -42 -76 -16 -84 -21 -51 -31 17 -5
37 -4 47 1 18 10 59 14 59 6 0 -3 -4 -16 -10 -30 -8 -21 -16 -26 -44 -26 -40
0 -66 -8 -66 -21 0 -5 6 -9 14 -9 8 0 18 -10 22 -22 5 -16 1 -27 -16 -40 -25
-20 -24 -21 40 -22 41 -1 45 -3 45 -26 0 -37 -35 -49 -185 -61 -146 -12 -304
-2 -401 27 -72 21 -157 63 -163 81 -3 8 -2 12 3 9 23 -15 31 624 21 1729 -4
470 -13 792 -18 648 -1 -32 -7 -53 -13 -53 -8 0 -10 22 -7 70 6 76 11 88 30
73 7 -6 51 -23 98 -39 83 -28 89 -29 302 -29 166 0 220 3 230 13 11 11 2 12
-52 5 -92 -11 -328 -8 -392 6 -95 21 -197 62 -201 79 -3 16 11 72 18 72 2 0 3
-14 3 -31z m222 21 c-13 -9 -12 -12 4 -25 11 -8 32 -15 47 -15 15 0 31 -4 34
-10 10 -16 -78 -12 -103 6 -35 24 -26 51 18 53 13 1 13 0 0 -9z m415 -4 c18
-13 17 -14 -11 -29 -63 -32 -192 -47 -144 -17 11 7 2 10 -30 10 -33 0 -41 3
-30 10 8 5 25 10 36 10 12 0 27 7 34 15 16 19 119 20 145 1z m5295 -1 c22 -13
23 -14 5 -15 -31 -2 -68 -10 -74 -16 -8 -8 21 -24 44 -24 11 0 27 -5 35 -10
21 -14 -43 -13 -92 1 -38 10 -52 29 -23 29 8 0 15 5 15 10 0 15 -23 12 -48 -6
-19 -13 -21 -18 -11 -31 11 -13 9 -14 -17 -11 -21 2 -29 8 -29 23 0 16 14 25
65 42 76 26 96 27 130 8z m458 -5 c56 -25 63 -47 26 -77 -16 -12 -38 -23 -49
-23 -14 1 -9 7 18 21 38 20 39 21 20 41 -10 12 -36 29 -58 39 -25 12 -33 19
-20 19 11 0 39 -9 63 -20z m-6235 -27 c18 -9 26 -18 20 -20 -18 -6 -75 36 -66
50 5 8 8 8 11 -1 2 -7 18 -20 35 -29z m186 21 c2 -2 2 -6 -1 -9 -9 -10 -58 6
-52 16 5 9 41 3 53 -7z m1156 -4 c497 -17 1159 -25 1930 -25 799 0 2096 12
2103 20 3 3 17 5 31 5 l26 0 -3 -322 c-3 -318 4 -492 17 -454 4 11 8 -79 9
-200 1 -120 7 -244 13 -276 6 -31 8 -76 5 -100 -17 -114 -18 -136 -2 -166 18
-34 23 -108 6 -82 -5 8 -7 22 -4 32 2 9 0 19 -6 23 -6 4 -10 -7 -10 -29 0 -22
6 -38 16 -44 14 -8 15 -21 10 -83 -4 -41 -9 -94 -11 -119 -2 -25 -6 -52 -10
-61 -4 -10 0 -19 9 -22 11 -5 16 -19 15 -49 l-2 -43 -7 35 c-4 19 -9 31 -10
25 -2 -5 -3 -134 -4 -285 -1 -177 -5 -274 -11 -274 -392 58 -892 105 -1335
125 -430 20 -1579 1 -1905 -31 -55 -5 -176 -14 -270 -20 -194 -13 -704 -58
-714 -64 -3 -2 -96 -11 -206 -20 -110 -9 -214 -18 -232 -20 -27 -4 -32 -1 -35
17 -2 12 -9 21 -15 20 -7 -2 -14 18 -17 50 -9 74 -26 1419 -26 1972 l0 465 23
5 c41 9 131 13 227 9 52 -3 230 -9 395 -14z m4186 -64 c55 -47 177 -77 334
-83 251 -9 430 30 460 99 11 26 14 28 15 12 0 -34 -36 -71 -87 -88 -25 -9
-101 -23 -167 -32 -258 -35 -558 24 -596 117 -7 16 -8 33 -3 41 5 9 9 5 11
-14 2 -15 16 -38 33 -52z m25 58 c-10 -25 19 -61 59 -74 20 -7 34 -14 31 -17
-2 -3 -30 6 -60 20 -57 26 -70 49 -44 75 17 17 21 15 14 -4z m579 6 c-3 -5
-15 -10 -26 -10 -10 0 -19 5 -19 10 0 6 12 10 26 10 14 0 23 -4 19 -10z
m-5900 -10 c-3 -5 -10 -10 -16 -10 -5 0 -9 5 -9 10 0 6 7 10 16 10 8 0 12 -4
9 -10z m5615 -10 c0 -5 -2 -10 -4 -10 -3 0 -8 5 -11 10 -3 6 -1 10 4 10 6 0
11 -4 11 -10z m360 -9 c0 -28 -8 -31 -114 -43 -96 -11 -270 -3 -261 12 5 8
213 27 255 22 51 -5 64 -3 72 13 13 22 48 19 48 -4z m-5653 -37 c-3 -3 -12 -4
-19 -1 -8 3 -5 6 6 6 11 1 17 -2 13 -5z m5145 -20 c12 -11 50 -20 113 -27 52
-6 95 -15 95 -20 0 -11 -65 -6 -175 14 -38 7 -64 14 -56 17 10 3 7 9 -10 18
-21 12 -21 13 -5 14 11 0 28 -7 38 -16z m-5277 -3 c-27 -11 -155 -19 -155 -10
0 8 54 14 135 17 29 0 35 -1 20 -7z m5112 -20 c29 -19 73 -35 145 -50 140 -29
242 -33 389 -16 164 19 168 19 179 -7 l9 -23 0 22 c1 30 21 40 21 10 0 -37
-40 -65 -118 -85 -39 -10 -75 -21 -79 -25 -11 -11 29 -8 87 7 30 8 58 12 61 8
13 -14 20 -70 10 -77 -14 -8 -14 -45 -1 -45 6 0 10 7 10 15 0 8 5 15 10 15 19
0 10 -28 -15 -44 -37 -25 -53 -20 -58 17 -2 17 -5 -7 -5 -55 -1 -48 -6 -90
-12 -93 -6 -4 -5 -13 3 -25 11 -19 12 -19 19 1 12 31 33 17 36 -24 3 -31 -1
-38 -27 -52 -30 -15 -42 -35 -21 -35 6 0 10 5 10 10 0 6 9 10 20 10 15 0 20
-7 20 -26 0 -34 20 -21 21 14 1 26 1 26 11 -5 14 -43 2 -56 -67 -73 -37 -9
-52 -17 -46 -23 7 -7 19 -7 35 1 28 13 41 3 49 -38 4 -21 4 -20 6 7 2 50 21
51 21 0 0 -42 -1 -44 -47 -64 -40 -17 -44 -21 -22 -22 18 -1 28 -9 36 -28 l11
-28 1 28 c1 37 21 34 21 -4 0 -26 -6 -33 -45 -50 -47 -21 -60 -35 -24 -26 12
3 22 0 26 -9 7 -19 23 -18 23 2 0 8 5 12 10 9 6 -3 10 -22 10 -41 0 -27 -5
-36 -24 -44 -23 -8 -24 -11 -13 -47 l12 -38 3 32 c2 17 10 34 19 37 21 8 30
-1 15 -16 -7 -7 -12 -24 -12 -38 0 -21 -7 -29 -37 -39 -32 -12 -35 -15 -20
-26 12 -8 17 -27 17 -61 0 -35 3 -45 10 -34 5 8 10 37 10 63 0 30 4 46 10 42
13 -8 13 -235 0 -255 -8 -13 -10 -12 -10 3 0 9 -4 17 -10 17 -5 0 -10 -6 -10
-14 0 -8 -12 -24 -27 -35 l-28 -20 32 -1 c27 0 32 -4 36 -27 4 -26 4 -26 6 5
2 49 21 38 21 -12 0 -43 -1 -45 -42 -58 -40 -14 -43 -17 -45 -54 l-2 -39 11
33 c13 38 25 41 38 10 l9 -23 0 22 c2 49 31 30 31 -20 0 -16 -11 -27 -44 -40
l-43 -18 -1 -74 c0 -41 4 -77 9 -80 5 -4 9 8 9 24 0 37 24 42 35 9 8 -22 8
-22 12 5 4 28 23 38 23 13 0 -8 2 -21 5 -28 4 -10 -7 -19 -37 -28 -58 -18 -66
-26 -60 -55 5 -30 18 -32 25 -5 7 28 21 25 34 -7 l11 -28 1 33 c1 17 5 32 10
32 5 0 10 -45 10 -101 l0 -101 -39 -16 c-24 -9 -40 -21 -39 -31 0 -10 2 -12 6
-3 8 19 29 14 41 -10 l11 -23 0 22 c1 32 18 37 24 7 5 -31 -14 -53 -55 -61
-35 -7 -41 -18 -30 -58 l8 -30 7 33 c8 38 28 39 38 1 7 -24 7 -24 8 3 1 35 17
44 25 15 10 -39 7 -44 -43 -65 -41 -17 -49 -24 -44 -41 5 -20 6 -20 22 -2 9 9
28 23 44 29 24 10 27 10 27 -9 0 -11 7 -22 15 -25 26 -10 16 -21 -36 -40 -58
-21 -74 -37 -64 -61 6 -16 8 -15 16 6 8 19 12 21 24 11 32 -27 14 -62 -38 -75
-39 -10 -33 -25 8 -18 38 6 40 4 48 -59 6 -38 6 -38 -44 -52 -81 -24 -159 -29
-275 -17 -193 21 -361 73 -378 117 -4 10 -11 194 -16 409 -6 214 -14 539 -20
720 -6 182 -15 521 -20 755 -5 234 -12 464 -15 513 -6 100 -3 102 62 58z m734
-194 c-8 -8 -11 -3 -11 19 1 25 2 27 11 11 8 -14 8 -22 0 -30z m-811 -37 c0
-5 -5 -10 -11 -10 -5 0 -7 5 -4 10 3 6 8 10 11 10 2 0 4 -4 4 -10z m-5633
-262 c-2 -35 -3 -9 -3 57 0 66 1 94 3 63 2 -32 2 -86 0 -120z m6443 137 c0
-19 -4 -35 -10 -35 -5 0 -10 16 -10 35 0 19 5 35 10 35 6 0 10 -16 10 -35z
m-42 -17 c-3 -45 -22 -62 -33 -28 -10 30 2 70 21 70 12 0 14 -10 12 -42z m119
-95 c-2 -16 -4 -5 -4 22 0 28 2 40 4 28 2 -13 2 -35 0 -50z m-90 -15 c-2 -13
-4 -5 -4 17 -1 22 1 32 4 23 2 -10 2 -28 0 -40z m-5590 -105 c-2 -16 -4 -3 -4
27 0 30 2 43 4 28 2 -16 2 -40 0 -55z m-57 -19 c0 -8 -5 -12 -10 -9 -6 4 -8
11 -5 16 9 14 15 11 15 -7z m5737 -21 c-3 -10 -5 -4 -5 12 0 17 2 24 5 18 2
-7 2 -21 0 -30z m-5670 -165 c-3 -8 -6 -5 -6 6 -1 11 2 17 5 13 3 -3 4 -12 1
-19z m-840 -45 c-3 -10 -5 -2 -5 17 0 19 2 27 5 18 2 -10 2 -26 0 -35z m0
-260 c-3 -10 -5 -2 -5 17 0 19 2 27 5 18 2 -10 2 -26 0 -35z m740 -95 c-3 -8
-6 -5 -6 6 -1 11 2 17 5 13 3 -3 4 -12 1 -19z m6 -121 c3 -8 1 -20 -4 -28 -6
-10 -9 -7 -9 14 0 29 5 35 13 14z m-746 -119 c-2 -18 -4 -4 -4 32 0 36 2 50 4
33 2 -18 2 -48 0 -65z m850 -170 c-3 -8 -6 -5 -6 6 -1 11 2 17 5 13 3 -3 4
-12 1 -19z m5573 -23 c0 -17 6 -25 18 -26 9 0 -3 -8 -28 -18 -25 -10 -48 -16
-52 -14 -13 7 -9 63 3 63 7 0 18 -8 25 -17 12 -16 13 -15 14 10 0 15 5 27 10
27 6 0 10 -11 10 -25z m-6433 -257 c-2 -18 -4 -6 -4 27 0 33 2 48 4 33 2 -15
2 -42 0 -60z m0 -140 c-2 -13 -4 -5 -4 17 -1 22 1 32 4 23 2 -10 2 -28 0 -40z
m5673 -63 c0 -30 -4 -55 -10 -55 -11 0 -14 93 -3 103 12 12 13 8 13 -48z m-3
-207 c-2 -24 -4 -7 -4 37 0 44 2 63 4 43 2 -21 2 -57 0 -80z m775 -64 c4 -37
-6 -55 -16 -28 -9 24 -7 64 3 64 5 0 11 -16 13 -36z m-5673 -49 c6 -3 10 -25
10 -48 -1 -23 -3 -33 -6 -22 -3 11 -14 30 -25 42 -16 17 -19 29 -13 50 7 27 8
27 15 7 5 -12 13 -25 19 -29z m-50 5 c9 -27 8 -30 -10 -30 -10 0 -19 3 -19 8
0 4 -3 17 -6 30 -10 35 22 28 35 -8z m152 -43 c-8 -8 -11 -5 -11 9 0 27 14 41
18 19 2 -9 -1 -22 -7 -28z m5579 -39 c0 -21 -4 -38 -10 -38 -5 0 -10 24 -10
53 0 37 3 48 10 37 5 -8 10 -32 10 -52z m-270 -198 c0 -5 -4 -10 -10 -10 -5 0
-10 5 -10 10 0 6 5 10 10 10 6 0 10 -4 10 -10z m-10 -102 c0 -48 -15 -71 -31
-47 -10 16 -12 84 -2 118 l6 23 13 -23 c7 -13 13 -45 14 -71z m-5697 -19 c1
-19 -2 -36 -8 -39 -6 -3 -11 16 -13 45 -2 35 0 47 7 39 6 -5 12 -26 14 -45z
m5617 -13 c-7 -7 -10 4 -9 30 1 39 1 39 10 9 5 -18 5 -33 -1 -39z"/>
<path d="M763 3700 c0 -41 2 -58 4 -37 2 20 2 54 0 75 -2 20 -4 3 -4 -38z"/>
<path d="M1370 3585 c-24 -15 -24 -16 18 -9 38 5 42 4 42 -15 0 -12 5 -21 11
-21 6 0 9 12 7 28 -4 33 -39 40 -78 17z"/>
<path d="M1418 3423 c7 -3 16 -2 19 1 4 3 -2 6 -13 5 -11 0 -14 -3 -6 -6z"/>
<path d="M1430 3379 c0 -11 4 -18 10 -14 5 3 7 12 3 20 -7 21 -13 19 -13 -6z"/>
<path d="M1363 3320 c-35 -14 -28 -18 21 -13 42 5 43 4 51 -28 l8 -34 4 28 c3
16 2 35 -1 43 -6 16 -49 18 -83 4z"/>
<path d="M1410 3230 c-13 -8 -13 -10 2 -10 9 0 20 5 23 10 8 13 -5 13 -25 0z"/>
<path d="M1348 3113 c6 -2 18 -2 25 0 6 3 1 5 -13 5 -14 0 -19 -2 -12 -5z"/>
<path d="M1385 2933 c-27 -7 -44 -23 -23 -23 31 0 78 13 78 21 0 9 -21 10 -55
2z"/>
<path d="M1383 2813 c9 -2 23 -2 30 0 6 3 -1 5 -18 5 -16 0 -22 -2 -12 -5z"/>
<path d="M822 2435 c0 -16 2 -22 5 -12 2 9 2 23 0 30 -3 6 -5 -1 -5 -18z"/>
<path d="M772 2030 c-1 -206 -4 -433 -6 -505 l-5 -130 10 105 c5 58 8 285 6
505 l-2 400 -3 -375z"/>
<path d="M816 2049 c-9 -46 -7 -112 4 -129 7 -10 10 12 10 73 0 48 -2 87 -4
87 -2 0 -6 -14 -10 -31z"/>
<path d="M1385 1930 c-16 -7 -11 -9 20 -9 22 0 47 4 55 9 19 13 -46 13 -75 0z"/>
<path d="M1375 1845 l-50 -13 57 -1 c62 -1 91 6 82 20 -7 11 -26 10 -89 -6z"/>
<path d="M1385 1750 c-8 -13 55 -13 75 0 11 7 4 10 -27 10 -23 0 -45 -4 -48
-10z"/>
<path d="M812 1410 c0 -14 2 -19 5 -12 2 6 2 18 0 25 -3 6 -5 1 -5 -13z"/>
<path d="M1290 3950 c0 -5 9 -10 19 -10 11 0 23 5 26 10 4 6 -5 10 -19 10 -14
0 -26 -4 -26 -10z"/>
<path d="M6293 3810 c0 -36 2 -50 4 -32 2 17 2 47 0 65 -2 17 -4 3 -4 -33z"/>
<path d="M6254 3675 c0 -93 2 -133 3 -88 2 45 2 122 0 170 -1 48 -3 12 -3 -82z"/>
<path d="M1607 3801 c-4 -17 -3 -21 5 -13 5 5 8 16 6 23 -3 8 -7 3 -11 -10z"/>
<path d="M6294 3460 c0 -113 2 -159 3 -102 2 56 2 148 0 205 -1 56 -3 10 -3
-103z"/>
<path d="M6213 3335 c0 -33 2 -45 4 -27 2 18 2 45 0 60 -2 15 -4 0 -4 -33z"/>
<path d="M1664 2130 c0 -135 2 -190 3 -122 2 67 2 177 0 245 -1 67 -3 12 -3
-123z"/>
<path d="M1623 2165 c0 -33 2 -45 4 -27 2 18 2 45 0 60 -2 15 -4 0 -4 -33z"/>
<path d="M1762 2090 c0 -14 2 -19 5 -12 2 6 2 18 0 25 -3 6 -5 1 -5 -13z"/>
<path d="M1622 1900 c-1 -74 2 -128 6 -120 5 8 5 69 2 135 l-6 120 -2 -135z"/>
<path d="M1822 1920 c0 -19 2 -27 5 -17 2 9 2 25 0 35 -3 9 -5 1 -5 -18z"/>
<path d="M6325 1937 c-4 -10 -5 -21 -1 -24 10 -10 18 4 13 24 -4 17 -4 17 -12
0z"/>
<path d="M6293 1765 c0 -44 2 -61 4 -37 2 23 2 59 0 80 -2 20 -4 1 -4 -43z"/>
<path d="M6331 1724 c0 -11 3 -14 6 -6 3 7 2 16 -1 19 -3 4 -6 -2 -5 -13z"/>
<path d="M1632 1590 c0 -14 2 -19 5 -12 2 6 2 18 0 25 -3 6 -5 1 -5 -13z"/>
<path d="M6327 1588 c-3 -13 -2 -43 3 -68 7 -44 8 -43 9 23 1 69 -3 84 -12 45z"/>
<path d="M1677 1500 c3 -11 7 -20 9 -20 2 0 4 9 4 20 0 11 -4 20 -9 20 -5 0
-7 -9 -4 -20z"/>
<path d="M7080 3739 c0 -5 5 -7 10 -4 6 3 10 8 10 11 0 2 -4 4 -10 4 -5 0 -10
-5 -10 -11z"/>
<path d="M7008 3573 c6 -2 18 -2 25 0 6 3 1 5 -13 5 -14 0 -19 -2 -12 -5z"/>
<path d="M7060 2833 c0 -22 2 -25 10 -13 13 20 13 40 0 40 -5 0 -10 -12 -10
-27z"/>
<path d="M7063 2675 c0 -27 2 -38 4 -22 2 15 2 37 0 50 -2 12 -4 0 -4 -28z"/>
<path d="M7074 2564 c-18 -14 -18 -15 6 -8 14 3 32 10 40 15 12 7 11 8 -6 9
-11 0 -29 -7 -40 -16z"/>
<path d="M7071 2514 c0 -11 3 -14 6 -6 3 7 2 16 -1 19 -3 4 -6 -2 -5 -13z"/>
<path d="M7088 1939 c-10 -5 -18 -20 -17 -32 l0 -22 9 23 c5 12 16 22 24 22 8
0 18 5 21 10 8 13 -15 12 -37 -1z"/>
<path d="M7122 1885 c0 -16 2 -22 5 -12 2 9 2 23 0 30 -3 6 -5 -1 -5 -18z"/>
</g>
</svg>
